<svg id="Layer_1" data-name="Layer 1" xmlns="http://www.w3.org/2000/svg" xmlns:xlink="http://www.w3.org/1999/xlink" viewBox="0 0 1217 206"><defs><style>.cls-1{fill:url(#linear-gradient);}.cls-2,.cls-4{fill:#23cf5f;}.cls-3{fill:#fff;stroke:#fff;}.cls-3,.cls-4{stroke-miterlimit:10;stroke-width:4px;}.cls-4{stroke:#23cf5f;}</style><linearGradient id="linear-gradient" x1="56" y1="-1763.34" x2="134.55" y2="-1763.34" gradientTransform="matrix(1, 0, 0, -1, 0, -1672)" gradientUnits="userSpaceOnUse"><stop offset="0" stop-color="#23a85e"/><stop offset="1" stop-color="#4fb95e"/></linearGradient></defs><title>themehunt-4points-refined</title><path class="cls-1" d="M56,59.34l.5,66.22,12.92-1.1a66.09,66.09,0,0,0,65-67.32h0Z"/><path class="cls-2" d="M70.83,201.29h0a66.22,66.22,0,0,1-67.32-65L1.2,2.33h0A66.24,66.24,0,0,1,68.52,67.45Z"/><path class="cls-3" d="M663.77,114.15c0-6.53-1.42-12.62-5.15-18-4.75-6.91-11.47-10.77-19.65-12-8.65-1.32-16.68.39-23.66,5.82a27.21,27.21,0,0,0-10.8,20.78c-.36,6.8-.18,13.62-.19,20.43V172a3.48,3.48,0,0,1-3.48,3.48h0a3.48,3.48,0,0,1-3.48-3.48V114.28a31.24,31.24,0,0,0-4.51-17.18c-4.7-7.45-11.59-11.63-20.17-13S556,84.43,549,89.84,538.25,102.39,538.1,111l-.24,61.12a3.39,3.39,0,0,1-3.39,3.38h0a3.39,3.39,0,0,1-3.39-3.39V82.55a3.41,3.41,0,0,1,3.41-3.41h0a3.41,3.41,0,0,1,3.41,3.41V92c8.41-12,19.81-16.49,33.55-15.25s23.82,8.34,29.76,20.79c1.31-2.29,2.47-4.75,4-6.93,6.05-8.56,14.53-13,24.84-13.88,7.93-.69,15.58.45,22.63,4.43,9.08,5.13,14.59,13,16.92,23a43.24,43.24,0,0,1,1,9.59l0,58.31a3.44,3.44,0,0,1-3.44,3.44h0a3.44,3.44,0,0,1-3.44-3.44Z"/><path class="cls-4" d="M824.44,45.49h0a3.4,3.4,0,0,1,3.4,3.4v54.74h87.44V49a3.43,3.43,0,0,1,3.43-3.43h0A3.43,3.43,0,0,1,922.15,49V172.14a3.38,3.38,0,0,1-3.38,3.38h0a3.38,3.38,0,0,1-3.38-3.38V111H827.88v61.11a3.38,3.38,0,0,1-3.38,3.38h-.08a3.38,3.38,0,0,1-3.38-3.38V48.89A3.4,3.4,0,0,1,824.44,45.49Z"/><path class="cls-3" d="M382.14,117.69a52.32,52.32,0,0,0-2.36-16.58c-3.14-9.41-8.93-16.57-18-20.83-5.83-2.73-12-3.62-18.4-3.71-12.86-.18-23.68,4.27-32.13,14.11-1.11,1.3-2.09,2.71-3.42,4.45V39.53a3.4,3.4,0,0,0-3.4-3.4h0a3.4,3.4,0,0,0-3.4,3.4V172.08a3.4,3.4,0,0,0,3.4,3.4h.07a3.4,3.4,0,0,0,3.4-3.4V118.57a38.37,38.37,0,0,1,.38-6.29c2.16-12.81,9.15-21.83,21.3-26.67,6.06-2.42,12.38-2.72,18.78-2C361,85.12,369.82,92,373.5,104.43a48.89,48.89,0,0,1,1.71,14v53.73a3.4,3.4,0,0,0,3.4,3.4h.15a3.4,3.4,0,0,0,3.4-3.4Z"/><path class="cls-4" d="M1032.11,79.16h.35a3.26,3.26,0,0,1,3.26,3.26v89.83a3.26,3.26,0,0,1-3.26,3.26h-.3a3.26,3.26,0,0,1-3.26-3.26V160.33l-.33-.09c-.43.64-.85,1.28-1.3,1.91-6.4,9-15.21,13.84-26,15.23-8.62,1.1-17,.2-24.89-3.68-11-5.43-17.86-14.29-20.59-26.2a50.33,50.33,0,0,1-1.18-10.87l0-54.24a3.26,3.26,0,0,1,3.26-3.26h.42a3.26,3.26,0,0,1,3.26,3.26v53.75a37.76,37.76,0,0,0,1.95,13c4.42,12.2,13.26,19.2,25.86,21.26,10.83,1.77,20.71-.75,29.06-8.13a30.82,30.82,0,0,0,10-19.15,49.32,49.32,0,0,0,.44-7.18l0-53.5A3.26,3.26,0,0,1,1032.11,79.16Z"/><path class="cls-4" d="M1144.74,175.55h-.37a3.26,3.26,0,0,1-3.26-3.26V118.5a48.69,48.69,0,0,0-1.69-14.11c-3.72-12.42-12.5-19.27-25.2-20.75-7.45-.87-14.71-.22-21.53,3.18-10.42,5.2-16.49,13.66-18.44,25.08a41.5,41.5,0,0,0-.46,6.88l0,53.47a3.26,3.26,0,0,1-3.26,3.26h-.3a3.26,3.26,0,0,1-3.26-3.26V82.42a3.26,3.26,0,0,1,3.26-3.26h.3a3.26,3.26,0,0,1,3.26,3.26V95.15c1-1.37,1.7-2.38,2.46-3.34a38.76,38.76,0,0,1,28.59-15.11,47.75,47.75,0,0,1,19.56,2.24c10.89,3.83,17.81,11.51,21.39,22.34a53.08,53.08,0,0,1,2.3,16.74L1148,172.3A3.26,3.26,0,0,1,1144.74,175.55Z"/><path class="cls-3" d="M231.06,175.52h-.2a3.38,3.38,0,0,1-3.38-3.38V52.38H187.16A3.38,3.38,0,0,1,183.79,49v-.09a3.38,3.38,0,0,1,3.38-3.38h87.64a3.38,3.38,0,0,1,3.38,3.38h0a3.38,3.38,0,0,1-3.38,3.38H234.44V172.14A3.38,3.38,0,0,1,231.06,175.52Z"/><path class="cls-4" d="M1179.61,85.94h-9.72a3.26,3.26,0,0,1-3.26-3.26v-.37a3.26,3.26,0,0,1,3.26-3.26h9.73V61.68a3.26,3.26,0,0,1,3.26-3.26h.37a3.26,3.26,0,0,1,3.26,3.26V79h22.77a3.26,3.26,0,0,1,3.26,3.26v.48a3.26,3.26,0,0,1-3.26,3.26h-22.72c0,.71,0,1.25,0,1.79q0,26.83,0,53.66c0,5.5.59,10.9,3.06,15.93,3.47,7.08,9.25,10.83,17,11.67.95.1,1.9.17,2.87.22a3.25,3.25,0,0,1,3.05,3.25h0a3.28,3.28,0,0,1-3.27,3.26c-8.12.08-15.43-2.16-21.28-8.58-5.25-5.76-7.46-12.8-8.12-20.4-.19-2.14-.24-4.3-.24-6.46q0-26.15,0-52.3Z"/><path class="cls-3" d="M780.41,152.14a41.89,41.89,0,0,1-34.77,18.75c-23.33,0-42.24-19.43-42.24-43.4,0-.2,0-.4,0-.6H794.8a52.07,52.07,0,0,0-.5-6.61C790.89,95.8,770.41,77,745.64,77S700.39,95.8,697,120.28a52.07,52.07,0,0,0-.5,6.61c0,.2,0,.4,0,.6,0,27.89,22,50.51,49.16,50.51a49,49,0,0,0,42.91-25.86q.44-.81.85-1.63a3.47,3.47,0,0,0-3.14-5h0a3.47,3.47,0,0,0-3.1,1.9A43.48,43.48,0,0,1,780.41,152.14ZM745.64,84.09c20.94,0,38.31,15.65,41.66,36.19H704C707.33,99.74,724.71,84.09,745.64,84.09Z"/><path class="cls-3" d="M491.73,152.14A41.89,41.89,0,0,1,457,170.9c-23.33,0-42.24-19.43-42.24-43.4,0-.2,0-.4,0-.6h91.39a52.07,52.07,0,0,0-.5-6.61C502.21,95.8,481.72,77,457,77S411.71,95.8,408.3,120.28a52.07,52.07,0,0,0-.5,6.61c0,.2,0,.4,0,.6,0,27.89,22,50.51,49.16,50.51a49,49,0,0,0,42.91-25.86q.44-.81.85-1.63a3.47,3.47,0,0,0-3.14-5h0a3.47,3.47,0,0,0-3.1,1.9A43.48,43.48,0,0,1,491.73,152.14ZM457,84.09c20.94,0,38.31,15.65,41.66,36.19H415.3C418.64,99.74,436,84.09,457,84.09Z"/></svg>